<svg width="77" height="22" viewBox="0 0 77 22" fill="none" xmlns="http://www.w3.org/2000/svg">
<path d="M12.75 3.375L1.25 10.5363L12.75 18.625" stroke="#EDDCC0" stroke-width="2.5" stroke-linecap="round" stroke-linejoin="round"/>
<path d="M28.418 17V15.02H31.766C32.366 15.02 32.816 14.858 33.116 14.534C33.428 14.198 33.584 13.736 33.584 13.148C33.584 12.548 33.416 12.074 33.08 11.726C32.756 11.378 32.288 11.204 31.676 11.204H28.418V9.224H31.532C32.096 9.224 32.522 9.092 32.81 8.828C33.11 8.552 33.26 8.15 33.26 7.622C33.26 7.094 33.116 6.698 32.828 6.434C32.552 6.158 32.138 6.02 31.586 6.02H28.418V4.04H32.18C33.332 4.04 34.262 4.334 34.97 4.922C35.678 5.51 36.032 6.308 36.032 7.316C36.032 7.952 35.882 8.498 35.582 8.954C35.282 9.41 34.88 9.758 34.376 9.998C33.872 10.238 33.308 10.358 32.684 10.358L32.774 9.98C33.446 9.98 34.052 10.124 34.592 10.412C35.144 10.7 35.582 11.108 35.906 11.636C36.23 12.152 36.392 12.764 36.392 13.472C36.392 14.18 36.224 14.804 35.888 15.344C35.564 15.872 35.102 16.28 34.502 16.568C33.914 16.856 33.218 17 32.414 17H28.418ZM26.15 17V4.04H28.922V17H26.15ZM36.932 17L41.576 4.04H43.952L39.686 17H36.932ZM46.436 17L42.188 4.04H44.672L49.316 17H46.436ZM39.38 11.978H46.652V14.138H39.38V11.978ZM55.913 17.18C54.977 17.18 54.113 17.018 53.321 16.694C52.529 16.358 51.839 15.89 51.251 15.29C50.675 14.69 50.225 13.982 49.901 13.166C49.577 12.338 49.415 11.438 49.415 10.466C49.415 9.494 49.571 8.606 49.883 7.802C50.207 6.998 50.657 6.302 51.233 5.714C51.821 5.114 52.511 4.658 53.303 4.346C54.095 4.022 54.965 3.86 55.913 3.86C56.981 3.86 57.941 4.07 58.793 4.49C59.657 4.898 60.359 5.48 60.899 6.236C61.451 6.98 61.787 7.856 61.907 8.864H59.207C59.051 7.94 58.673 7.244 58.073 6.776C57.473 6.296 56.759 6.056 55.931 6.056C55.199 6.056 54.551 6.23 53.987 6.578C53.435 6.926 53.003 7.43 52.691 8.09C52.379 8.738 52.223 9.524 52.223 10.448C52.223 11.384 52.379 12.194 52.691 12.878C53.015 13.55 53.459 14.072 54.023 14.444C54.587 14.804 55.235 14.984 55.967 14.984C56.747 14.984 57.437 14.75 58.037 14.282C58.637 13.814 59.027 13.118 59.207 12.194H61.943C61.787 13.202 61.433 14.084 60.881 14.84C60.329 15.584 59.627 16.16 58.775 16.568C57.923 16.976 56.969 17.18 55.913 17.18ZM63.275 17V4.04H66.047V17H63.275ZM65.165 10.268L70.997 4.04H74.687L68.531 10.268H65.165ZM71.285 17L65.129 10.268H68.531L75.047 17H71.285Z" fill="#EDDCC0"/>
</svg>
