<svg width="500" height="250" viewBox="0 0 500 250" fill="none" xmlns="http://www.w3.org/2000/svg">
<g clip-path="url(#clip0_29_27)">
<rect width="500" height="250" fill="#F7F2EE"/>
<path d="M159.329 130.97C158.91 130.97 158.7 130.82 158.7 130.521C158.7 130.191 159 129.982 159.599 129.892L160.497 129.757C161.155 129.667 161.605 129.518 161.844 129.308C162.114 129.068 162.308 128.634 162.428 128.006L168.536 101.599C168.685 100.97 168.685 100.551 168.536 100.341C168.386 100.132 168.012 99.9671 167.413 99.8474L166.515 99.6677C166.125 99.5779 165.931 99.4132 165.931 99.1737C165.931 98.8145 166.2 98.6348 166.739 98.6348H181.739C182.517 98.6348 182.832 98.9791 182.682 99.6677L181.29 107.123C181.2 107.632 180.961 107.886 180.571 107.886C180.152 107.886 179.973 107.692 180.032 107.302L180.167 105.731C180.317 104.204 180.182 103.006 179.763 102.138C179.374 101.27 178.775 100.656 177.967 100.296C177.188 99.9372 176.275 99.7575 175.227 99.7575C174.029 99.7575 173.161 99.9372 172.622 100.296C172.083 100.626 171.709 101.225 171.5 102.093L169.03 112.916C168.94 113.335 169.104 113.545 169.524 113.545H171.814C173.131 113.545 174.089 112.841 174.688 111.434L175.676 109.189C175.826 108.799 176.065 108.605 176.395 108.605C176.574 108.605 176.709 108.68 176.799 108.829C176.919 108.949 176.949 109.129 176.889 109.368L174.553 119.473C174.404 119.982 174.149 120.236 173.79 120.236C173.431 120.236 173.251 120.042 173.251 119.652L173.296 117.452C173.326 116.404 173.191 115.715 172.892 115.386C172.622 115.057 172.143 114.892 171.455 114.892H169.209C168.76 114.892 168.491 115.102 168.401 115.521L165.796 126.793C165.557 127.871 165.661 128.649 166.11 129.128C166.56 129.607 167.518 129.847 168.985 129.847C169.883 129.847 170.766 129.712 171.634 129.443C172.533 129.143 173.371 128.589 174.149 127.781C174.958 126.973 175.691 125.805 176.35 124.278L177.428 121.763C177.577 121.374 177.817 121.179 178.146 121.179C178.595 121.179 178.745 121.434 178.595 121.943L176.305 129.937C176.125 130.625 175.676 130.97 174.958 130.97H159.329ZM185.663 131.374C184.017 131.374 182.654 130.7 181.576 129.353C180.499 127.976 179.96 126.224 179.96 124.098C179.96 122.093 180.274 120.131 180.903 118.215C181.562 116.269 182.43 114.518 183.508 112.961C184.615 111.374 185.828 110.117 187.145 109.189C188.493 108.26 189.84 107.796 191.187 107.796C192.624 107.796 193.837 108.186 194.825 108.964C194.974 109.084 195.064 109.189 195.094 109.278C195.124 109.338 195.109 109.488 195.049 109.727L193.837 115.611C193.747 116.03 193.552 116.239 193.253 116.239C192.924 116.239 192.729 116.015 192.669 115.566L192.445 112.377C192.355 111 192.145 110.102 191.816 109.683C191.516 109.263 191.067 109.054 190.469 109.054C189.63 109.054 188.777 109.473 187.909 110.311C187.04 111.12 186.232 112.227 185.484 113.635C184.765 115.012 184.181 116.554 183.732 118.26C183.313 119.937 183.103 121.643 183.103 123.38C183.103 127.152 184.331 129.038 186.786 129.038C187.954 129.038 189.002 128.5 189.93 127.422C190.888 126.344 191.771 124.667 192.579 122.392C192.669 122.093 192.879 121.943 193.208 121.943C193.388 121.943 193.492 122.018 193.522 122.167C193.552 122.287 193.522 122.542 193.433 122.931C193.133 124.577 192.594 126.03 191.816 127.287C191.037 128.544 190.109 129.547 189.031 130.296C187.984 131.015 186.861 131.374 185.663 131.374ZM208.593 131.374C207.516 131.374 206.707 130.925 206.168 130.027C205.629 129.128 205.599 127.736 206.078 125.85L209.536 112.826C209.866 111.659 209.911 110.85 209.671 110.401C209.462 109.952 209.147 109.727 208.728 109.727C208.069 109.727 207.321 110.147 206.483 110.985C205.674 111.793 204.821 112.916 203.923 114.353C203.055 115.76 202.201 117.362 201.363 119.158C200.555 120.925 199.806 122.796 199.117 124.772C198.429 126.718 197.875 128.619 197.456 130.476C197.366 130.805 197.156 130.97 196.827 130.97H194.941C194.522 130.97 194.357 130.775 194.447 130.386L201.004 102.228C201.153 101.689 201.153 101.314 201.004 101.105C200.884 100.895 200.614 100.775 200.195 100.746L198.848 100.611C198.399 100.581 198.204 100.386 198.264 100.027C198.324 99.7575 198.534 99.5929 198.893 99.533C199.971 99.3534 200.929 99.1438 201.767 98.9043C202.605 98.6348 203.279 98.2905 203.788 97.8714C204.028 97.6917 204.252 97.6019 204.462 97.6019C204.821 97.6019 204.956 97.8264 204.866 98.2755L200.465 117.362C200.435 117.572 200.48 117.691 200.599 117.721C200.719 117.751 200.824 117.676 200.914 117.497C202.111 115.042 203.249 113.111 204.327 111.703C205.405 110.296 206.408 109.293 207.336 108.695C208.294 108.096 209.162 107.796 209.941 107.796C211.048 107.796 211.857 108.245 212.366 109.144C212.875 110.042 212.875 111.419 212.366 113.275L208.953 126.299C208.743 127.137 208.728 127.766 208.908 128.185C209.087 128.604 209.417 128.814 209.896 128.814C210.495 128.814 211.078 128.425 211.647 127.646C212.216 126.838 212.83 125.326 213.489 123.11C213.578 122.781 213.773 122.616 214.072 122.616C214.312 122.616 214.447 122.706 214.477 122.886C214.536 123.066 214.536 123.275 214.477 123.515C213.908 125.551 213.294 127.152 212.635 128.32C211.977 129.458 211.303 130.251 210.614 130.7C209.956 131.149 209.282 131.374 208.593 131.374ZM221.509 131.374C219.652 131.374 218.185 130.61 217.108 129.083C216.03 127.527 215.491 125.431 215.491 122.796C215.491 120.85 215.805 118.979 216.434 117.182C217.063 115.386 217.886 113.784 218.904 112.377C219.952 110.97 221.105 109.862 222.362 109.054C223.649 108.215 224.937 107.796 226.224 107.796C228.08 107.796 229.547 108.56 230.625 110.087C231.703 111.614 232.242 113.709 232.242 116.374C232.242 118.32 231.928 120.191 231.299 121.988C230.67 123.784 229.832 125.386 228.784 126.793C227.766 128.2 226.613 129.323 225.326 130.161C224.069 130.97 222.796 131.374 221.509 131.374ZM221.419 130.296C222.377 130.296 223.305 129.832 224.203 128.904C225.131 127.976 225.97 126.748 226.718 125.221C227.467 123.694 228.065 122.003 228.515 120.146C228.964 118.26 229.188 116.374 229.188 114.488C229.188 110.745 228.215 108.874 226.269 108.874C225.341 108.874 224.413 109.338 223.485 110.266C222.557 111.165 221.718 112.377 220.97 113.904C220.251 115.431 219.667 117.137 219.218 119.024C218.769 120.88 218.545 122.751 218.545 124.637C218.545 128.41 219.503 130.296 221.419 130.296ZM240.059 131.374C239.221 131.374 238.323 131.284 237.365 131.104C236.436 130.925 235.553 130.685 234.715 130.386C233.907 130.056 233.263 129.682 232.784 129.263C232.634 129.113 232.529 128.964 232.469 128.814C232.439 128.664 232.454 128.44 232.514 128.14L233.772 121.09C233.862 120.551 234.101 120.281 234.49 120.281C234.85 120.281 235.029 120.581 235.029 121.179L235.074 122.931C235.134 125.446 235.568 127.257 236.377 128.365C237.185 129.473 238.502 130.027 240.329 130.027C242.005 130.027 243.397 129.428 244.505 128.23C245.613 127.003 246.167 125.371 246.167 123.335C246.167 122.018 245.808 120.64 245.089 119.203C244.37 117.766 243.367 116.329 242.08 114.892C240.553 113.185 239.415 111.629 238.667 110.221C237.948 108.814 237.589 107.332 237.589 105.775C237.589 104.548 237.888 103.365 238.487 102.228C239.086 101.06 239.984 100.102 241.182 99.3534C242.409 98.5749 243.966 98.1857 245.852 98.1857C248.457 98.1857 250.448 98.7695 251.825 99.9372C252.245 100.267 252.394 100.761 252.274 101.419L251.017 107.976C250.927 108.425 250.718 108.65 250.388 108.65C250.059 108.65 249.864 108.395 249.804 107.886L249.76 106.943C249.64 104.518 249.295 102.677 248.727 101.419C248.188 100.132 247.095 99.4881 245.448 99.4881C244.251 99.4881 243.293 99.7575 242.574 100.296C241.855 100.835 241.332 101.509 241.002 102.317C240.673 103.096 240.508 103.874 240.508 104.653C240.508 105.521 240.628 106.359 240.867 107.168C241.107 107.946 241.511 108.784 242.08 109.683C242.679 110.551 243.487 111.614 244.505 112.871C245.942 114.578 247.065 116.209 247.873 117.766C248.682 119.323 249.086 120.835 249.086 122.302C249.086 124.069 248.682 125.64 247.873 127.018C247.095 128.365 246.032 129.428 244.685 130.206C243.337 130.985 241.796 131.374 240.059 131.374ZM247.012 140.176C246.623 140.176 246.429 140.011 246.429 139.682C246.429 139.383 246.668 139.203 247.147 139.143L247.776 139.053C248.375 138.963 248.824 138.784 249.123 138.514C249.393 138.275 249.602 137.826 249.752 137.167L255.725 111.389C255.785 111.15 255.74 110.97 255.59 110.85C255.47 110.7 255.291 110.7 255.051 110.85C254.752 111 254.467 111.165 254.198 111.344C253.928 111.494 253.659 111.659 253.389 111.838C253.12 112.018 252.895 112.078 252.716 112.018C252.536 111.928 252.446 111.778 252.446 111.569C252.446 111.359 252.596 111.15 252.895 110.94C253.734 110.371 254.602 109.877 255.5 109.458C256.009 109.218 256.324 108.829 256.443 108.29L257.027 105.731C257.177 105.102 257.566 104.787 258.195 104.787H259.003C259.362 104.787 259.632 104.892 259.812 105.102C259.991 105.311 260.036 105.611 259.946 106L259.632 107.302C259.542 107.811 259.737 108.021 260.216 107.931C260.904 107.841 261.563 107.796 262.192 107.796C264.407 107.796 266.219 108.425 267.626 109.683C269.033 110.94 269.737 112.871 269.737 115.476C269.737 117.512 269.362 119.488 268.614 121.404C267.865 123.29 266.877 124.982 265.65 126.479C264.422 127.976 263.075 129.173 261.608 130.071C260.141 130.94 258.674 131.374 257.207 131.374C256.398 131.374 255.635 131.209 254.916 130.88C254.467 130.67 254.198 130.79 254.108 131.239L252.761 137.167C252.611 137.826 252.611 138.26 252.761 138.469C252.94 138.679 253.315 138.829 253.883 138.919L255.051 139.098C255.59 139.188 255.86 139.368 255.86 139.637C255.86 139.996 255.605 140.176 255.096 140.176H247.012ZM255.365 125.805C254.827 128.769 255.47 130.251 257.297 130.251C258.344 130.251 259.407 129.817 260.485 128.949C261.563 128.05 262.566 126.868 263.494 125.401C264.422 123.904 265.171 122.227 265.74 120.371C266.308 118.515 266.593 116.614 266.593 114.667C266.593 112.662 266.159 111.224 265.29 110.356C264.422 109.458 263.15 109.009 261.473 109.009C259.976 109.009 259.123 109.518 258.913 110.536L255.365 125.805ZM284.206 131.374C283.128 131.374 282.32 130.925 281.781 130.027C281.242 129.128 281.212 127.736 281.691 125.85L285.149 112.826C285.479 111.659 285.523 110.85 285.284 110.401C285.074 109.952 284.76 109.727 284.341 109.727C283.682 109.727 282.934 110.147 282.095 110.985C281.287 111.793 280.434 112.916 279.536 114.353C278.667 115.76 277.814 117.362 276.976 119.158C276.167 120.925 275.419 122.796 274.73 124.772C274.042 126.718 273.488 128.619 273.069 130.476C272.979 130.805 272.769 130.97 272.44 130.97H270.554C270.135 130.97 269.97 130.775 270.06 130.386L276.616 102.228C276.766 101.689 276.766 101.314 276.616 101.105C276.497 100.895 276.227 100.775 275.808 100.746L274.461 100.611C274.012 100.581 273.817 100.386 273.877 100.027C273.937 99.7575 274.146 99.5929 274.506 99.533C275.584 99.3534 276.542 99.1438 277.38 98.9043C278.218 98.6348 278.892 98.2905 279.401 97.8714C279.64 97.6917 279.865 97.6019 280.074 97.6019C280.434 97.6019 280.568 97.8264 280.479 98.2755L276.078 117.362C276.048 117.572 276.092 117.691 276.212 117.721C276.332 117.751 276.437 117.676 276.527 117.497C277.724 115.042 278.862 113.111 279.94 111.703C281.018 110.296 282.021 109.293 282.949 108.695C283.907 108.096 284.775 107.796 285.553 107.796C286.661 107.796 287.47 108.245 287.979 109.144C288.487 110.042 288.487 111.419 287.979 113.275L284.565 126.299C284.356 127.137 284.341 127.766 284.52 128.185C284.7 128.604 285.029 128.814 285.508 128.814C286.107 128.814 286.691 128.425 287.26 127.646C287.829 126.838 288.443 125.326 289.101 123.11C289.191 122.781 289.386 122.616 289.685 122.616C289.925 122.616 290.059 122.706 290.089 122.886C290.149 123.066 290.149 123.275 290.089 123.515C289.52 125.551 288.907 127.152 288.248 128.32C287.589 129.458 286.916 130.251 286.227 130.7C285.568 131.149 284.895 131.374 284.206 131.374ZM295.999 131.374C294.412 131.374 293.139 130.76 292.181 129.533C291.223 128.275 290.744 126.509 290.744 124.233C290.744 122.257 291.089 120.296 291.777 118.35C292.496 116.404 293.424 114.638 294.562 113.051C295.699 111.464 296.942 110.192 298.289 109.233C299.666 108.275 300.999 107.796 302.286 107.796C303.693 107.796 304.696 108.141 305.295 108.829C305.924 109.488 306.238 110.386 306.238 111.524C306.238 112.871 305.759 114.218 304.801 115.566C303.873 116.883 302.555 118.066 300.849 119.114C299.172 120.161 297.196 120.94 294.921 121.449C294.262 121.599 293.918 121.973 293.888 122.572C293.858 122.781 293.843 123.006 293.843 123.245C293.843 123.455 293.843 123.664 293.843 123.874C293.843 125.58 294.127 126.868 294.696 127.736C295.295 128.604 296.103 129.038 297.121 129.038C298.259 129.038 299.352 128.515 300.4 127.467C301.478 126.419 302.376 124.937 303.094 123.021C303.184 122.751 303.364 122.616 303.633 122.616C303.813 122.616 303.918 122.691 303.948 122.841C304.008 122.991 304.008 123.17 303.948 123.38C302.99 126.015 301.822 128.006 300.445 129.353C299.097 130.7 297.615 131.374 295.999 131.374ZM294.337 119.742C294.277 119.952 294.307 120.131 294.427 120.281C294.577 120.401 294.756 120.431 294.966 120.371C296.822 119.862 298.379 119.099 299.636 118.081C300.894 117.033 301.837 115.865 302.466 114.578C303.124 113.29 303.454 112.033 303.454 110.805C303.454 109.548 302.96 108.919 301.972 108.919C301.103 108.919 300.16 109.428 299.142 110.446C298.124 111.464 297.181 112.796 296.313 114.443C295.445 116.09 294.786 117.856 294.337 119.742ZM307.794 130.97C307.375 130.97 307.211 130.775 307.3 130.386L311.567 112.467C311.717 111.808 311.732 111.299 311.612 110.94C311.522 110.551 311.252 110.356 310.803 110.356C310.264 110.356 309.666 110.76 309.007 111.569C308.378 112.347 307.66 113.844 306.851 116.06C306.732 116.449 306.522 116.643 306.223 116.643C305.774 116.643 305.654 116.374 305.863 115.835C306.522 113.769 307.211 112.153 307.929 110.985C308.678 109.817 309.426 108.994 310.175 108.515C310.923 108.036 311.612 107.796 312.24 107.796C313.228 107.796 313.932 108.171 314.351 108.919C314.77 109.638 314.785 110.835 314.396 112.512L313.902 114.623C313.872 114.832 313.917 114.952 314.037 114.982C314.157 115.012 314.261 114.937 314.351 114.757C315.489 112.153 316.522 110.341 317.45 109.323C318.378 108.305 319.441 107.796 320.639 107.796C321.447 107.796 322.046 108.021 322.435 108.47C322.854 108.889 323.064 109.473 323.064 110.221C323.064 110.97 322.884 111.569 322.525 112.018C322.165 112.467 321.701 112.691 321.133 112.691C320.654 112.691 320.309 112.572 320.1 112.332C319.89 112.093 319.725 111.823 319.606 111.524C319.516 111.194 319.411 110.91 319.291 110.671C319.172 110.431 318.977 110.311 318.707 110.311C318.258 110.311 317.675 110.88 316.956 112.018C316.237 113.156 315.459 114.697 314.621 116.643C313.812 118.56 313.019 120.715 312.24 123.11C311.492 125.506 310.833 127.961 310.264 130.476C310.175 130.805 309.965 130.97 309.636 130.97H307.794ZM325.56 131.374C323.973 131.374 322.701 130.76 321.743 129.533C320.785 128.275 320.306 126.509 320.306 124.233C320.306 122.257 320.65 120.296 321.339 118.35C322.057 116.404 322.985 114.638 324.123 113.051C325.261 111.464 326.503 110.192 327.85 109.233C329.228 108.275 330.56 107.796 331.847 107.796C333.254 107.796 334.257 108.141 334.856 108.829C335.485 109.488 335.799 110.386 335.799 111.524C335.799 112.871 335.32 114.218 334.362 115.566C333.434 116.883 332.117 118.066 330.41 119.114C328.734 120.161 326.758 120.94 324.482 121.449C323.823 121.599 323.479 121.973 323.449 122.572C323.419 122.781 323.404 123.006 323.404 123.245C323.404 123.455 323.404 123.664 323.404 123.874C323.404 125.58 323.689 126.868 324.258 127.736C324.856 128.604 325.665 129.038 326.683 129.038C327.82 129.038 328.913 128.515 329.961 127.467C331.039 126.419 331.937 124.937 332.656 123.021C332.746 122.751 332.925 122.616 333.195 122.616C333.374 122.616 333.479 122.691 333.509 122.841C333.569 122.991 333.569 123.17 333.509 123.38C332.551 126.015 331.383 128.006 330.006 129.353C328.659 130.7 327.177 131.374 325.56 131.374ZM323.898 119.742C323.838 119.952 323.868 120.131 323.988 120.281C324.138 120.401 324.318 120.431 324.527 120.371C326.383 119.862 327.94 119.099 329.198 118.081C330.455 117.033 331.398 115.865 332.027 114.578C332.686 113.29 333.015 112.033 333.015 110.805C333.015 109.548 332.521 108.919 331.533 108.919C330.665 108.919 329.722 109.428 328.704 110.446C327.686 111.464 326.743 112.796 325.874 114.443C325.006 116.09 324.347 117.856 323.898 119.742Z" fill="#313C98" fill-opacity="0.74"/>
<path d="M37.7144 86V65.4259H51.5943V67.8538H40.4371V74.2253H50.0926V76.6532H40.4371V86H37.7144ZM52.1573 78.5478C52.1573 75.7878 52.9245 73.7435 54.4589 72.4149C55.7407 71.3109 57.3032 70.7589 59.1463 70.7589C61.1953 70.7589 62.8701 71.4325 64.1706 72.7798C65.4711 74.1177 66.1213 75.9702 66.1213 78.3373C66.1213 80.2553 65.8313 81.7664 65.2512 82.8704C64.6805 83.965 63.8431 84.8164 62.7391 85.4246C61.6444 86.0327 60.4468 86.3368 59.1463 86.3368C57.0599 86.3368 55.3711 85.6679 54.08 84.3299C52.7982 82.992 52.1573 81.0646 52.1573 78.5478ZM54.7536 78.5478C54.7536 80.4565 55.17 81.888 56.0027 82.8423C56.8354 83.7873 57.8833 84.2598 59.1463 84.2598C60.4001 84.2598 61.4433 83.7826 62.276 82.8283C63.1087 81.8739 63.525 80.4191 63.525 78.4636C63.525 76.6205 63.104 75.2264 62.2619 74.2814C61.4292 73.3271 60.3907 72.85 59.1463 72.85C57.8833 72.85 56.8354 73.3224 56.0027 74.2674C55.17 75.2124 54.7536 76.6392 54.7536 78.5478ZM67.344 86V71.0957H69.6175V73.3552C70.1976 72.2979 70.7309 71.6009 71.2174 71.2641C71.7133 70.9273 72.256 70.7589 72.8454 70.7589C73.6968 70.7589 74.5622 71.0302 75.4417 71.5728L74.5716 73.9166C73.9541 73.5517 73.3366 73.3692 72.7191 73.3692C72.1671 73.3692 71.6712 73.5376 71.2315 73.8745C70.7917 74.2019 70.4783 74.6604 70.2912 75.2498C70.0105 76.148 69.8701 77.1304 69.8701 78.197V86H67.344ZM81.7324 86V65.4259H85.8304L90.7003 79.9934C91.1494 81.35 91.4768 82.3651 91.6827 83.0388C91.9166 82.2903 92.2815 81.1909 92.7773 79.7407L97.7033 65.4259H101.366V86H98.7419V68.78L92.7633 86H90.3073L84.3568 68.4853V86H81.7324ZM113.479 86V83.8107C112.319 85.4948 110.743 86.3368 108.75 86.3368C107.87 86.3368 107.047 86.1684 106.28 85.8316C105.522 85.4948 104.956 85.0737 104.582 84.5685C104.217 84.0539 103.96 83.4271 103.81 82.6879C103.707 82.1921 103.656 81.4061 103.656 80.3302V71.0957H106.182V79.3618C106.182 80.681 106.233 81.5699 106.336 82.0283C106.495 82.6926 106.832 83.2166 107.347 83.6002C107.861 83.9744 108.497 84.1615 109.255 84.1615C110.013 84.1615 110.724 83.9697 111.388 83.5861C112.053 83.1932 112.52 82.6645 112.792 82.0003C113.072 81.3266 113.213 80.3536 113.213 79.0811V71.0957H115.739V86H113.479ZM116.976 81.5512L119.474 81.1582C119.614 82.1593 120.002 82.9265 120.639 83.4598C121.284 83.9931 122.182 84.2598 123.333 84.2598C124.493 84.2598 125.354 84.0259 125.915 83.558C126.477 83.0809 126.757 82.5242 126.757 81.888C126.757 81.3173 126.51 80.8682 126.014 80.5407C125.668 80.3161 124.807 80.0308 123.431 79.6846C121.579 79.2168 120.292 78.8145 119.572 78.4777C118.861 78.1315 118.318 77.659 117.944 77.0602C117.579 76.4521 117.397 75.7831 117.397 75.0533C117.397 74.389 117.546 73.7762 117.846 73.2148C118.155 72.6441 118.571 72.1716 119.095 71.7974C119.488 71.5074 120.021 71.2641 120.695 71.0676C121.378 70.8618 122.107 70.7589 122.884 70.7589C124.054 70.7589 125.078 70.9273 125.958 71.2641C126.846 71.6009 127.501 72.0594 127.922 72.6394C128.343 73.2102 128.633 73.9774 128.792 74.9411L126.322 75.2779C126.21 74.5107 125.883 73.9119 125.34 73.4815C124.807 73.0511 124.049 72.8359 123.066 72.8359C121.906 72.8359 121.078 73.0277 120.582 73.4113C120.087 73.7949 119.839 74.244 119.839 74.7586C119.839 75.0861 119.942 75.3808 120.147 75.6428C120.353 75.9141 120.676 76.1386 121.116 76.3164C121.368 76.41 122.112 76.6252 123.347 76.962C125.134 77.4391 126.379 77.8321 127.08 78.1408C127.791 78.4402 128.348 78.88 128.75 79.4601C129.153 80.0401 129.354 80.7606 129.354 81.6213C129.354 82.4634 129.106 83.2587 128.61 84.0071C128.123 84.7463 127.417 85.3217 126.491 85.7334C125.565 86.1357 124.517 86.3368 123.347 86.3368C121.41 86.3368 119.932 85.9345 118.912 85.1299C117.902 84.3253 117.256 83.1323 116.976 81.5512ZM130.647 68.3309V65.4259H133.173V68.3309H130.647ZM130.647 86V71.0957H133.173V86H130.647ZM145.033 80.5407L147.517 80.8635C147.246 82.5757 146.549 83.9183 145.426 84.8913C144.313 85.855 142.942 86.3368 141.314 86.3368C139.275 86.3368 137.633 85.6725 136.388 84.344C135.153 83.006 134.536 81.0927 134.536 78.604C134.536 76.9947 134.802 75.5866 135.336 74.3797C135.869 73.1727 136.678 72.2699 137.764 71.6711C138.858 71.0629 140.047 70.7589 141.328 70.7589C142.947 70.7589 144.271 71.1705 145.3 71.9939C146.329 72.8079 146.989 73.968 147.279 75.4744L144.823 75.8533C144.589 74.8522 144.173 74.099 143.574 73.5938C142.984 73.0885 142.269 72.8359 141.427 72.8359C140.154 72.8359 139.12 73.2944 138.325 74.2113C137.53 75.1188 137.132 76.5597 137.132 78.5338C137.132 80.536 137.516 81.9909 138.283 82.8984C139.05 83.806 140.051 84.2598 141.286 84.2598C142.278 84.2598 143.106 83.9557 143.77 83.3475C144.435 82.7394 144.856 81.8038 145.033 80.5407ZM154.552 86V65.4259H161.639C163.239 65.4259 164.46 65.5241 165.302 65.7206C166.481 65.9919 167.487 66.4831 168.319 67.1942C169.405 68.1111 170.214 69.2853 170.747 70.7168C171.29 72.1389 171.561 73.7669 171.561 75.6007C171.561 77.1631 171.379 78.5478 171.014 79.7548C170.649 80.9617 170.181 81.9628 169.611 82.7581C169.04 83.544 168.413 84.1662 167.73 84.6246C167.056 85.0737 166.238 85.4152 165.274 85.6491C164.32 85.883 163.22 86 161.976 86H154.552ZM157.275 83.5721H161.667C163.024 83.5721 164.086 83.4458 164.853 83.1932C165.63 82.9405 166.247 82.585 166.706 82.1266C167.351 81.481 167.852 80.6155 168.207 79.5302C168.572 78.4356 168.755 77.1117 168.755 75.5586C168.755 73.4066 168.399 71.7553 167.688 70.6045C166.986 69.4443 166.13 68.6678 165.12 68.2748C164.39 67.9941 163.216 67.8538 161.597 67.8538H157.275V83.5721ZM173.289 68.3309V65.4259H175.815V68.3309H173.289ZM173.289 86V71.0957H175.815V86H173.289ZM176.94 81.5512L179.438 81.1582C179.578 82.1593 179.967 82.9265 180.603 83.4598C181.248 83.9931 182.147 84.2598 183.297 84.2598C184.458 84.2598 185.318 84.0259 185.88 83.558C186.441 83.0809 186.722 82.5242 186.722 81.888C186.722 81.3173 186.474 80.8682 185.978 80.5407C185.632 80.3161 184.771 80.0308 183.396 79.6846C181.543 79.2168 180.257 78.8145 179.536 78.4777C178.825 78.1315 178.282 77.659 177.908 77.0602C177.543 76.4521 177.361 75.7831 177.361 75.0533C177.361 74.389 177.511 73.7762 177.81 73.2148C178.119 72.6441 178.535 72.1716 179.059 71.7974C179.452 71.5074 179.985 71.2641 180.659 71.0676C181.342 70.8618 182.072 70.7589 182.848 70.7589C184.018 70.7589 185.042 70.9273 185.922 71.2641C186.811 71.6009 187.465 72.0594 187.887 72.6394C188.308 73.2102 188.598 73.9774 188.757 74.9411L186.287 75.2779C186.174 74.5107 185.847 73.9119 185.304 73.4815C184.771 73.0511 184.013 72.8359 183.031 72.8359C181.871 72.8359 181.043 73.0277 180.547 73.4113C180.051 73.7949 179.803 74.244 179.803 74.7586C179.803 75.0861 179.906 75.3808 180.112 75.6428C180.317 75.9141 180.64 76.1386 181.08 76.3164C181.333 76.41 182.076 76.6252 183.311 76.962C185.098 77.4391 186.343 77.8321 187.044 78.1408C187.756 78.4402 188.312 78.88 188.715 79.4601C189.117 80.0401 189.318 80.7606 189.318 81.6213C189.318 82.4634 189.07 83.2587 188.574 84.0071C188.088 84.7463 187.381 85.3217 186.455 85.7334C185.529 86.1357 184.481 86.3368 183.311 86.3368C181.375 86.3368 179.896 85.9345 178.877 85.1299C177.866 84.3253 177.221 83.1323 176.94 81.5512ZM200.323 80.5407L202.807 80.8635C202.535 82.5757 201.838 83.9183 200.715 84.8913C199.602 85.855 198.231 86.3368 196.603 86.3368C194.564 86.3368 192.922 85.6725 191.677 84.344C190.442 83.006 189.825 81.0927 189.825 78.604C189.825 76.9947 190.092 75.5866 190.625 74.3797C191.158 73.1727 191.967 72.2699 193.053 71.6711C194.147 71.0629 195.336 70.7589 196.617 70.7589C198.236 70.7589 199.56 71.1705 200.589 71.9939C201.618 72.8079 202.278 73.968 202.568 75.4744L200.112 75.8533C199.878 74.8522 199.462 74.099 198.863 73.5938C198.274 73.0885 197.558 72.8359 196.716 72.8359C195.443 72.8359 194.409 73.2944 193.614 74.2113C192.819 75.1188 192.421 76.5597 192.421 78.5338C192.421 80.536 192.805 81.9909 193.572 82.8984C194.339 83.806 195.34 84.2598 196.575 84.2598C197.567 84.2598 198.395 83.9557 199.059 83.3475C199.724 82.7394 200.145 81.8038 200.323 80.5407ZM202.303 78.5478C202.303 75.7878 203.07 73.7435 204.605 72.4149C205.886 71.3109 207.449 70.7589 209.292 70.7589C211.341 70.7589 213.016 71.4325 214.316 72.7798C215.617 74.1177 216.267 75.9702 216.267 78.3373C216.267 80.2553 215.977 81.7664 215.397 82.8704C214.826 83.965 213.989 84.8164 212.885 85.4246C211.79 86.0327 210.593 86.3368 209.292 86.3368C207.206 86.3368 205.517 85.6679 204.226 84.3299C202.944 82.992 202.303 81.0646 202.303 78.5478ZM204.899 78.5478C204.899 80.4565 205.316 81.888 206.148 82.8423C206.981 83.7873 208.029 84.2598 209.292 84.2598C210.546 84.2598 211.589 83.7826 212.422 82.8283C213.254 81.8739 213.671 80.4191 213.671 78.4636C213.671 76.6205 213.25 75.2264 212.408 74.2814C211.575 73.3271 210.536 72.85 209.292 72.85C208.029 72.85 206.981 73.3224 206.148 74.2674C205.316 75.2124 204.899 76.6392 204.899 78.5478ZM221.658 86L215.988 71.0957H218.655L221.854 80.0214C222.201 80.9851 222.519 81.9862 222.809 83.0248C223.033 82.2388 223.347 81.2939 223.749 80.1898L227.061 71.0957H229.657L224.016 86H221.658ZM240.367 81.2003L242.977 81.5231C242.566 83.0481 241.803 84.2317 240.69 85.0737C239.577 85.9158 238.154 86.3368 236.424 86.3368C234.244 86.3368 232.513 85.6679 231.231 84.3299C229.958 82.9826 229.322 81.0974 229.322 78.6741C229.322 76.1667 229.968 74.2206 231.259 72.8359C232.55 71.4512 234.225 70.7589 236.283 70.7589C238.276 70.7589 239.904 71.4372 241.167 72.7938C242.43 74.1505 243.062 76.0591 243.062 78.5198C243.062 78.6695 243.057 78.894 243.048 79.1934H231.933C232.026 80.8307 232.489 82.0845 233.322 82.9546C234.155 83.8247 235.193 84.2598 236.438 84.2598C237.364 84.2598 238.154 84.0165 238.809 83.53C239.464 83.0435 239.984 82.2669 240.367 81.2003ZM232.073 77.1164H240.395C240.283 75.8626 239.965 74.9223 239.441 74.2955C238.636 73.3224 237.593 72.8359 236.311 72.8359C235.151 72.8359 234.173 73.2242 233.378 74.0008C232.592 74.7773 232.157 75.8159 232.073 77.1164ZM244.411 86V71.0957H246.684V73.3552C247.264 72.2979 247.798 71.6009 248.284 71.2641C248.78 70.9273 249.323 70.7589 249.912 70.7589C250.763 70.7589 251.629 71.0302 252.508 71.5728L251.638 73.9166C251.021 73.5517 250.403 73.3692 249.786 73.3692C249.234 73.3692 248.738 73.5376 248.298 73.8745C247.858 74.2019 247.545 74.6604 247.358 75.2498C247.077 76.148 246.937 77.1304 246.937 78.197V86H244.411ZM252.173 91.74L251.893 89.3682C252.445 89.5179 252.926 89.5928 253.338 89.5928C253.899 89.5928 254.349 89.4992 254.685 89.3121C255.022 89.1249 255.298 88.863 255.513 88.5262C255.672 88.2735 255.93 87.6467 256.285 86.6456C256.332 86.5052 256.407 86.2994 256.51 86.0281L250.854 71.0957H253.577L256.678 79.7267C257.081 80.8214 257.441 81.9722 257.759 83.1791C258.049 82.019 258.395 80.8869 258.797 79.7829L261.983 71.0957H264.509L258.84 86.2526C258.231 87.8899 257.759 89.0174 257.422 89.6349C256.973 90.4676 256.458 91.0757 255.878 91.4593C255.298 91.8523 254.606 92.0487 253.801 92.0487C253.315 92.0487 252.772 91.9458 252.173 91.74Z" fill="#313C98"/>
<path d="M209.765 162.262L217.666 141.688H220.599L229.02 162.262H225.918L223.518 156.031H214.915L212.656 162.262H209.765ZM215.701 153.814H222.676L220.529 148.116C219.874 146.385 219.388 144.963 219.069 143.849C218.807 145.169 218.438 146.478 217.961 147.779L215.701 153.814ZM229.148 162.262V147.358H231.421V149.477C232.516 147.84 234.097 147.021 236.165 147.021C237.063 147.021 237.886 147.185 238.635 147.512C239.393 147.83 239.959 148.251 240.333 148.775C240.707 149.299 240.969 149.921 241.119 150.642C241.212 151.11 241.259 151.928 241.259 153.098V162.262H238.733V153.196C238.733 152.167 238.635 151.4 238.438 150.895C238.242 150.38 237.891 149.973 237.386 149.674C236.89 149.365 236.305 149.21 235.631 149.21C234.556 149.21 233.625 149.552 232.839 150.235C232.062 150.918 231.674 152.214 231.674 154.122V162.262H229.148ZM253.092 162.262V160.382C252.147 161.86 250.757 162.599 248.924 162.599C247.735 162.599 246.641 162.272 245.64 161.617C244.648 160.962 243.876 160.049 243.324 158.88C242.781 157.701 242.51 156.349 242.51 154.824C242.51 153.336 242.758 151.989 243.254 150.782C243.75 149.566 244.493 148.635 245.485 147.989C246.477 147.344 247.586 147.021 248.811 147.021C249.709 147.021 250.509 147.213 251.211 147.596C251.913 147.971 252.484 148.462 252.923 149.07V141.688H255.435V162.262H253.092ZM245.106 154.824C245.106 156.733 245.509 158.16 246.313 159.105C247.118 160.049 248.067 160.522 249.162 160.522C250.266 160.522 251.202 160.073 251.969 159.175C252.746 158.267 253.134 156.887 253.134 155.035C253.134 152.995 252.741 151.498 251.955 150.544C251.169 149.589 250.201 149.112 249.05 149.112C247.927 149.112 246.987 149.571 246.229 150.488C245.481 151.404 245.106 152.85 245.106 154.824ZM260.435 162.262L268.336 141.688H271.269L279.69 162.262H276.588L274.188 156.031H265.586L263.326 162.262H260.435ZM266.371 153.814H273.346L271.199 148.116C270.544 146.385 270.058 144.963 269.74 143.849C269.478 145.169 269.108 146.478 268.631 147.779L266.371 153.814ZM279.79 162.262V147.358H282.063V149.617C282.643 148.56 283.177 147.863 283.663 147.526C284.159 147.189 284.702 147.021 285.291 147.021C286.143 147.021 287.008 147.292 287.888 147.835L287.017 150.179C286.4 149.814 285.782 149.631 285.165 149.631C284.613 149.631 284.117 149.8 283.677 150.137C283.238 150.464 282.924 150.923 282.737 151.512C282.456 152.41 282.316 153.393 282.316 154.459V162.262H279.79ZM293.18 160.003L293.545 162.234C292.834 162.384 292.198 162.459 291.636 162.459C290.719 162.459 290.008 162.314 289.503 162.024C288.998 161.734 288.642 161.355 288.437 160.887C288.231 160.41 288.128 159.413 288.128 157.898V149.323H286.275V147.358H288.128V143.667L290.64 142.151V147.358H293.18V149.323H290.64V158.038C290.64 158.758 290.682 159.221 290.766 159.427C290.86 159.633 291.005 159.797 291.201 159.918C291.407 160.04 291.697 160.101 292.071 160.101C292.352 160.101 292.722 160.068 293.18 160.003ZM293.954 144.593V141.688H296.48V144.593H293.954ZM293.954 162.262V147.358H296.48V162.262H293.954ZM297.604 157.813L300.102 157.42C300.243 158.422 300.631 159.189 301.267 159.722C301.913 160.255 302.811 160.522 303.962 160.522C305.122 160.522 305.983 160.288 306.544 159.82C307.105 159.343 307.386 158.786 307.386 158.15C307.386 157.579 307.138 157.13 306.642 156.803C306.296 156.578 305.435 156.293 304.06 155.947C302.207 155.479 300.921 155.077 300.201 154.74C299.49 154.394 298.947 153.921 298.573 153.322C298.208 152.714 298.025 152.045 298.025 151.316C298.025 150.651 298.175 150.038 298.474 149.477C298.783 148.906 299.199 148.434 299.723 148.06C300.116 147.77 300.65 147.526 301.323 147.33C302.006 147.124 302.736 147.021 303.513 147.021C304.682 147.021 305.707 147.189 306.586 147.526C307.475 147.863 308.13 148.322 308.551 148.902C308.972 149.472 309.262 150.24 309.421 151.203L306.951 151.54C306.839 150.773 306.511 150.174 305.969 149.744C305.435 149.313 304.677 149.098 303.695 149.098C302.535 149.098 301.707 149.29 301.211 149.674C300.715 150.057 300.467 150.506 300.467 151.021C300.467 151.348 300.57 151.643 300.776 151.905C300.982 152.176 301.305 152.401 301.744 152.579C301.997 152.672 302.741 152.887 303.976 153.224C305.763 153.701 307.007 154.094 307.709 154.403C308.42 154.702 308.977 155.142 309.379 155.722C309.781 156.302 309.982 157.023 309.982 157.884C309.982 158.726 309.734 159.521 309.239 160.269C308.752 161.008 308.046 161.584 307.119 161.996C306.193 162.398 305.145 162.599 303.976 162.599C302.039 162.599 300.561 162.197 299.541 161.392C298.531 160.587 297.885 159.395 297.604 157.813ZM316.777 160.003L317.142 162.234C316.43 162.384 315.794 162.459 315.233 162.459C314.316 162.459 313.605 162.314 313.1 162.024C312.594 161.734 312.239 161.355 312.033 160.887C311.827 160.41 311.724 159.413 311.724 157.898V149.323H309.872V147.358H311.724V143.667L314.236 142.151V147.358H316.777V149.323H314.236V158.038C314.236 158.758 314.279 159.221 314.363 159.427C314.456 159.633 314.601 159.797 314.798 159.918C315.004 160.04 315.294 160.101 315.668 160.101C315.949 160.101 316.318 160.068 316.777 160.003ZM338.814 155.049L341.536 155.736C340.966 157.972 339.936 159.68 338.449 160.859C336.971 162.028 335.16 162.613 333.018 162.613C330.8 162.613 328.994 162.164 327.6 161.266C326.216 160.358 325.158 159.048 324.429 157.336C323.708 155.624 323.348 153.786 323.348 151.821C323.348 149.678 323.755 147.812 324.569 146.221C325.392 144.621 326.557 143.41 328.064 142.586C329.579 141.754 331.245 141.337 333.06 141.337C335.118 141.337 336.849 141.861 338.252 142.909C339.656 143.957 340.633 145.431 341.185 147.33L338.505 147.961C338.028 146.464 337.335 145.374 336.428 144.691C335.52 144.008 334.379 143.667 333.004 143.667C331.422 143.667 330.098 144.046 329.032 144.804C327.975 145.562 327.231 146.581 326.8 147.863C326.37 149.136 326.155 150.45 326.155 151.807C326.155 153.556 326.407 155.086 326.913 156.396C327.427 157.696 328.223 158.669 329.299 159.315C330.374 159.961 331.539 160.283 332.793 160.283C334.318 160.283 335.609 159.844 336.666 158.964C337.724 158.085 338.439 156.78 338.814 155.049ZM341.917 154.81C341.917 152.05 342.684 150.006 344.219 148.677C345.5 147.573 347.063 147.021 348.906 147.021C350.955 147.021 352.63 147.695 353.93 149.042C355.231 150.38 355.881 152.232 355.881 154.6C355.881 156.518 355.591 158.029 355.011 159.133C354.44 160.227 353.603 161.079 352.499 161.687C351.404 162.295 350.206 162.599 348.906 162.599C346.82 162.599 345.131 161.93 343.84 160.592C342.558 159.254 341.917 157.327 341.917 154.81ZM344.513 154.81C344.513 156.719 344.93 158.15 345.762 159.105C346.595 160.049 347.643 160.522 348.906 160.522C350.16 160.522 351.203 160.045 352.036 159.09C352.868 158.136 353.285 156.681 353.285 154.726C353.285 152.883 352.864 151.489 352.022 150.544C351.189 149.589 350.15 149.112 348.906 149.112C347.643 149.112 346.595 149.585 345.762 150.53C344.93 151.475 344.513 152.901 344.513 154.81ZM357.132 162.262V147.358H359.405V149.477C360.5 147.84 362.081 147.021 364.149 147.021C365.047 147.021 365.87 147.185 366.619 147.512C367.377 147.83 367.943 148.251 368.317 148.775C368.691 149.299 368.953 149.921 369.103 150.642C369.196 151.11 369.243 151.928 369.243 153.098V162.262H366.717V153.196C366.717 152.167 366.619 151.4 366.422 150.895C366.226 150.38 365.875 149.973 365.37 149.674C364.874 149.365 364.289 149.21 363.616 149.21C362.54 149.21 361.609 149.552 360.823 150.235C360.046 150.918 359.658 152.214 359.658 154.122V162.262H357.132ZM371.406 162.262V147.358H373.68V149.477C374.774 147.84 376.356 147.021 378.423 147.021C379.321 147.021 380.145 147.185 380.893 147.512C381.651 147.83 382.217 148.251 382.591 148.775C382.966 149.299 383.228 149.921 383.377 150.642C383.471 151.11 383.518 151.928 383.518 153.098V162.262H380.992V153.196C380.992 152.167 380.893 151.4 380.697 150.895C380.5 150.38 380.149 149.973 379.644 149.674C379.148 149.365 378.564 149.21 377.89 149.21C376.814 149.21 375.883 149.552 375.097 150.235C374.321 150.918 373.932 152.214 373.932 154.122V162.262H371.406ZM395.884 157.463L398.494 157.785C398.082 159.31 397.32 160.494 396.206 161.336C395.093 162.178 393.671 162.599 391.94 162.599C389.76 162.599 388.029 161.93 386.747 160.592C385.475 159.245 384.839 157.36 384.839 154.936C384.839 152.429 385.484 150.483 386.775 149.098C388.066 147.713 389.741 147.021 391.8 147.021C393.792 147.021 395.42 147.699 396.683 149.056C397.947 150.413 398.578 152.321 398.578 154.782C398.578 154.932 398.573 155.156 398.564 155.456H387.449C387.543 157.093 388.006 158.347 388.838 159.217C389.671 160.087 390.71 160.522 391.954 160.522C392.88 160.522 393.671 160.279 394.326 159.792C394.981 159.306 395.5 158.529 395.884 157.463ZM387.589 153.379H395.912C395.799 152.125 395.481 151.185 394.957 150.558C394.153 149.585 393.109 149.098 391.828 149.098C390.667 149.098 389.69 149.486 388.894 150.263C388.109 151.04 387.673 152.078 387.589 153.379ZM409.681 156.803L412.165 157.126C411.894 158.838 411.196 160.18 410.074 161.154C408.96 162.117 407.59 162.599 405.962 162.599C403.922 162.599 402.28 161.935 401.036 160.606C399.801 159.268 399.183 157.355 399.183 154.866C399.183 153.257 399.45 151.849 399.983 150.642C400.516 149.435 401.326 148.532 402.411 147.933C403.506 147.325 404.694 147.021 405.976 147.021C407.594 147.021 408.918 147.433 409.947 148.256C410.977 149.07 411.636 150.23 411.926 151.737L409.47 152.115C409.236 151.114 408.82 150.361 408.221 149.856C407.632 149.351 406.916 149.098 406.074 149.098C404.802 149.098 403.768 149.557 402.972 150.473C402.177 151.381 401.78 152.822 401.78 154.796C401.78 156.798 402.163 158.253 402.93 159.161C403.698 160.068 404.699 160.522 405.934 160.522C406.925 160.522 407.753 160.218 408.418 159.61C409.082 159.002 409.503 158.066 409.681 156.803ZM418.117 160.003L418.482 162.234C417.771 162.384 417.135 162.459 416.573 162.459C415.656 162.459 414.945 162.314 414.44 162.024C413.935 161.734 413.579 161.355 413.373 160.887C413.168 160.41 413.065 159.413 413.065 157.898V149.323H411.212V147.358H413.065V143.667L415.577 142.151V147.358H418.117V149.323H415.577V158.038C415.577 158.758 415.619 159.221 415.703 159.427C415.797 159.633 415.942 159.797 416.138 159.918C416.344 160.04 416.634 160.101 417.008 160.101C417.289 160.101 417.659 160.068 418.117 160.003ZM418.891 144.593V141.688H421.417V144.593H418.891ZM418.891 162.262V147.358H421.417V162.262H418.891ZM422.611 154.81C422.611 152.05 423.379 150.006 424.913 148.677C426.195 147.573 427.757 147.021 429.6 147.021C431.649 147.021 433.324 147.695 434.625 149.042C435.925 150.38 436.575 152.232 436.575 154.6C436.575 156.518 436.285 158.029 435.705 159.133C435.135 160.227 434.297 161.079 433.193 161.687C432.098 162.295 430.901 162.599 429.6 162.599C427.514 162.599 425.825 161.93 424.534 160.592C423.252 159.254 422.611 157.327 422.611 154.81ZM425.208 154.81C425.208 156.719 425.624 158.15 426.457 159.105C427.289 160.049 428.337 160.522 429.6 160.522C430.854 160.522 431.897 160.045 432.73 159.09C433.563 158.136 433.979 156.681 433.979 154.726C433.979 152.883 433.558 151.489 432.716 150.544C431.883 149.589 430.845 149.112 429.6 149.112C428.337 149.112 427.289 149.585 426.457 150.53C425.624 151.475 425.208 152.901 425.208 154.81ZM437.826 162.262V147.358H440.1V149.477C441.194 147.84 442.775 147.021 444.843 147.021C445.741 147.021 446.565 147.185 447.313 147.512C448.071 147.83 448.637 148.251 449.011 148.775C449.386 149.299 449.648 149.921 449.797 150.642C449.891 151.11 449.938 151.928 449.938 153.098V162.262H447.411V153.196C447.411 152.167 447.313 151.4 447.117 150.895C446.92 150.38 446.569 149.973 446.064 149.674C445.568 149.365 444.984 149.21 444.31 149.21C443.234 149.21 442.303 149.552 441.517 150.235C440.741 150.918 440.352 152.214 440.352 154.122V162.262H437.826ZM451.09 157.813L453.588 157.42C453.729 158.422 454.117 159.189 454.753 159.722C455.399 160.255 456.297 160.522 457.448 160.522C458.608 160.522 459.469 160.288 460.03 159.82C460.591 159.343 460.872 158.786 460.872 158.15C460.872 157.579 460.624 157.13 460.128 156.803C459.782 156.578 458.921 156.293 457.546 155.947C455.693 155.479 454.407 155.077 453.686 154.74C452.975 154.394 452.433 153.921 452.058 153.322C451.694 152.714 451.511 152.045 451.511 151.316C451.511 150.651 451.661 150.038 451.96 149.477C452.269 148.906 452.685 148.434 453.209 148.06C453.602 147.77 454.136 147.526 454.809 147.33C455.492 147.124 456.222 147.021 456.998 147.021C458.168 147.021 459.193 147.189 460.072 147.526C460.961 147.863 461.616 148.322 462.037 148.902C462.458 149.472 462.748 150.24 462.907 151.203L460.437 151.54C460.325 150.773 459.997 150.174 459.454 149.744C458.921 149.313 458.163 149.098 457.181 149.098C456.021 149.098 455.193 149.29 454.697 149.674C454.201 150.057 453.953 150.506 453.953 151.021C453.953 151.348 454.056 151.643 454.262 151.905C454.468 152.176 454.79 152.401 455.23 152.579C455.483 152.672 456.227 152.887 457.462 153.224C459.249 153.701 460.493 154.094 461.195 154.403C461.906 154.702 462.462 155.142 462.865 155.722C463.267 156.302 463.468 157.023 463.468 157.884C463.468 158.726 463.22 159.521 462.724 160.269C462.238 161.008 461.532 161.584 460.605 161.996C459.679 162.398 458.631 162.599 457.462 162.599C455.525 162.599 454.047 162.197 453.027 161.392C452.016 160.587 451.371 159.395 451.09 157.813Z" fill="#313C98"/>
<circle cx="89.9953" cy="254.639" r="129.489" fill="#313C98" fill-opacity="0.74" stroke="#F7F2EE" stroke-width="0.299396"/>
<ellipse cx="96.8812" cy="259.579" rx="116.765" ry="116.914" fill="#434EAA"/>
<ellipse cx="107.51" cy="270.057" rx="94.7589" ry="94.4595" fill="#6670BE"/>
<circle cx="107.66" cy="277.692" r="76.6454" fill="#BDC1E5"/>
<ellipse cx="113.797" cy="284.578" rx="58.8314" ry="58.6817" fill="white"/>
<circle cx="89.9953" cy="254.639" r="129.489" fill="#313C98" fill-opacity="0.74" stroke="#F7F2EE" stroke-width="0.299396"/>
<circle cx="439.019" cy="-17.3372" r="138.171" transform="rotate(68.2997 439.019 -17.3372)" fill="#313C98" fill-opacity="0.74" stroke="#F7F2EE" stroke-width="0.299396"/>
<ellipse cx="436.725" cy="-8.52924" rx="124.699" ry="124.549" transform="rotate(68.2997 436.725 -8.52924)" fill="#434EAA"/>
<circle cx="430.694" cy="6.2766" r="100.897" transform="rotate(68.2997 430.694 6.2766)" fill="#6670BE"/>
<circle cx="422.988" cy="9.18179" r="81.8849" transform="rotate(68.2997 422.988 9.18179)" fill="#BDC1E5"/>
<circle cx="418.553" cy="17.8748" r="62.8732" transform="rotate(68.2997 418.553 17.8748)" fill="white"/>
<circle cx="439.019" cy="-17.3372" r="138.171" transform="rotate(68.2997 439.019 -17.3372)" fill="#313C98" fill-opacity="0.74" stroke="#F7F2EE" stroke-width="0.299396"/>
</g>
<rect x="0.598792" y="0.598792" width="498.802" height="248.802" stroke="#F7F2EE" stroke-width="1.19758"/>
<defs>
<clipPath id="clip0_29_27">
<rect width="500" height="250" fill="white"/>
</clipPath>
</defs>
</svg>
